<svg xmlns:xlink="http://www.w3.org/1999/xlink" xmlns="http://www.w3.org/2000/svg" viewBox="0 0 630 430" class="svg-logo" width="630" height="430" style="height: auto; user-select: auto;"><rect rx="0" ry="0" width="100%" height="100%" fill="none" style="user-select: auto;"></rect><g data-element="wrapper" transform="translate(-77.39064788818857 53.74998855590613) scale(0.7500000000000095)" style="user-select: auto;"><g data-element="container" transform="translate(245.13698630136986 145.13698630136986) scale(0.2328767123287671)" style="user-select: auto;"><g style="user-select: auto;"><path id="fill_x5F_1" fill="#000000" d="M0,0h600v600H0V0z" style="user-select: auto;" fill-opacity="0"></path>
<path id="frame_x5F_1_1_" d="M585.667,14.333H14.334v571.332h571.333V14.333L585.667,14.333z M559.56,559.559H40.44V40.44h519.12
	V559.559z M0,0v600h600V0H0z M590.722,590.721H9.279V9.278h581.443V590.721L590.722,590.721z" fill="#132117" style="user-select: auto;"></path></g></g><g style="user-select: auto;"><g data-element="icon" transform="scale(0.14493743079087815) translate(1875.7146265366498 1185.7615148802013)" style="user-select: auto;"><path id="color_x5F_2" fill="#1D5902" d="M382.716,354.675c-108.021,36.853-224.353,65.972-378.309,33.78    c49.383,52.048,195.865,72.282,306.405,41.318c23.764-6.656,47.385-18.604,65.526-23.826    c-73.221,40.052-128.473,76.905-243.394,68.672c38.126,24.773,116.224,40.327,204.331,0    c113.748-52.064,169.302-125.971,253.592-119.944C590.868,354.675,556.858,295.261,382.716,354.675z" style="user-select: auto;"></path> <path id="color_x5F_1" fill="#E6F288" d="M459.438,205.043l-51.427-36.619l56.951-25.56L459.438,205.043z M124,295.589    l-57.003,25.447l50.055,37.303L124,295.589z M550.137,246.15l-62.053-6.809l25.795,57.623L550.137,246.15z M341.091,95.904    l-36.158,50.885l62.89,5.525L341.091,95.904z M178.811,205.082l-62.039-6.931l24.263,57.516L178.811,205.082z M221.852,115.321    l-8.213,61.881l58.192-24.481L221.852,115.321z M148.578,380.2c127.335,2.802,202.05-43.92,293.624-62.573    c16.958-3.454,32.42-5.275,46.457-5.91c-15.714-72.236-76.824-129.048-154.344-135.859    c-95.429-8.384-179.587,62.181-187.971,157.611C144.94,349.469,145.8,365.136,148.578,380.2z" style="user-select: auto;"></path></g><text transform="translate(394.863037109375 231.63998413085938)" fill="#132117" font-family="Orbitron" font-size="64" data-element="company-name" dx="0 0 0 0 0 0 0 0 0 0 0" style="user-select: auto;">CryptoFolia</text></g></g></svg>